# xmcd CD database file
#
# Track frame offsets:
#	150
#	13918
#	30293
#	48243
#	69036
#	85588
#	100976
#	110859
#	124112
#	136290
#	155319
#	168184
#	188446
#	199571
#	218504
#	225473
#
# Disc length: 3224 seconds
#
# Revision: 0
# Processed by: cddbd v1.5.2PL0 Copyright (c) Steve Scherf et al.
# Submitted via: CDex 1.51
#
DISCID=bc0c9610
DTITLE=Jim Wake and Sleepwalker - Not an Ordinary Night
DYEAR=2004
DGENRE=Blues
TTITLE0=Dark Cafe
TTITLE1=Take me for a Ride
TTITLE2=Henry
TTITLE3=Woozy
TTITLE4=Never Felt So Bad
TTITLE5=Save Me, Save Me
TTITLE6=Gonna move into my Fuckin' Car
TTITLE7=New York City (with a full moon glow)
TTITLE8=Red Boots
TTITLE9=Las Vegas Shuffle
TTITLE10=Wicked Willie
TTITLE11=Grinnin' in Your Face
TTITLE12=That's Why I'm Leaving You
TTITLE13=Pappa's Pain
TTITLE14=Just Got To Know
TTITLE15=The Greatest Show on Earth
EXTD=YEAR: 2004
EXTT0=
EXTT1=
EXTT2=
EXTT3=
EXTT4=
EXTT5=
EXTT6=
EXTT7=
EXTT8=
EXTT9=
EXTT10=
EXTT11=
EXTT12=
EXTT13=
EXTT14=
EXTT15=
PLAYORDER=
